<svg width="104" height="24" viewBox="0 0 104 24" fill="none" xmlns="http://www.w3.org/2000/svg">
<path d="M0 22V2C0 0.895431 0.89543 0 2 0H7.70513C8.44812 0 9.07805 0.546332 9.18312 1.28185C9.40113 2.80791 11.5075 3.04277 12.0563 1.60221L12.2635 1.05837C12.5062 0.421124 13.1173 0 13.7992 0H19.058C20.5542 0 21.5206 1.58266 20.8372 2.91361L16.4162 11.5229C16.1518 12.0377 16.1234 12.6419 16.3384 13.1793L19.5696 21.2572C20.095 22.5709 19.1275 24 17.7126 24H11.1391C10.4963 24 9.96194 23.5051 9.91264 22.8643C9.82616 21.7401 8.39873 21.315 7.71127 22.2087L6.86285 23.3116C6.52898 23.7457 6.01245 24 5.46487 24H2C0.895431 24 0 23.1046 0 22Z" fill="#FF5D84"/>
<path d="M44 22V2C44 0.895431 44.8954 0 46 0H51.7854C52.4964 0 53.1132 0.490726 53.2731 1.18348C53.5632 2.44032 55.1845 2.79345 55.971 1.77107L56.7329 0.780578C57.1115 0.288408 57.6972 0 58.3181 0H63.058C64.5542 0 65.5206 1.58266 64.8372 2.91361L60.4162 11.5229C60.1518 12.0377 60.1234 12.6419 60.3384 13.1793L63.5696 21.2572C64.095 22.5709 63.1275 24 61.7126 24H55.2982C54.5656 24 53.9566 23.436 53.9004 22.7057C53.8086 21.5115 52.3583 20.975 51.5114 21.8219L49.9191 23.4142C49.544 23.7893 49.0353 24 48.5049 24H46C44.8954 24 44 23.1046 44 22Z" fill="#ECBE58"/>
<path d="M43.3333 9.72973C43.3333 16.3571 38.0312 24 31.1237 24C24.2163 24 19.3333 20.249 19.3333 13.6216C19.3333 6.9942 24.2163 0 31.1237 0C38.0312 0 43.3333 3.10231 43.3333 9.72973Z" fill="#48A2AF"/>
<path d="M79.9999 9.72973C79.9999 16.3571 85.1547 24 91.8703 24C98.5859 24 103.333 20.249 103.333 13.6216C103.333 6.9942 98.5859 0 91.8703 0C85.1547 0 79.9999 3.10231 79.9999 9.72973Z" fill="#9AC0C6"/>
<path fill-rule="evenodd" clip-rule="evenodd" d="M72.9999 0C69.8703 0 67.3333 2.53705 67.3333 5.66667V18.3333C67.3333 21.4629 69.8703 24 72.9999 24C76.1295 24 78.6666 21.4629 78.6666 18.3333V5.66667C78.6666 2.53706 76.1295 0 72.9999 0ZM73.9999 4.33333C73.9999 4.88562 73.5522 5.33333 72.9999 5.33333C72.4476 5.33333 71.9999 4.88562 71.9999 4.33333C71.9999 3.78105 72.4476 3.33333 72.9999 3.33333C73.5522 3.33333 73.9999 3.78105 73.9999 4.33333ZM77.3333 4.33333C77.3333 4.88562 76.8855 5.33333 76.3333 5.33333C75.781 5.33333 75.3333 4.88562 75.3333 4.33333C75.3333 3.78105 75.781 3.33333 76.3333 3.33333C76.8855 3.33333 77.3333 3.78105 77.3333 4.33333Z" fill="#E28355"/>
</svg>
